<svg xmlns="http://www.w3.org/2000/svg" width="1120" height="320" viewBox="0 0 1120 320">
  <title>Ctrlable</title>
  
  <g transform="translate(132.346 39.346) scale(2.01369)">
    <path d="M88.3 93.7 A44 44 0 1 1 88.3 26.3" stroke="#F2F6FA" stroke-width="9.5" fill="none" stroke-linecap="round"/>
    <path d="M78.6 82.2 A29 29 0 1 1 78.6 37.8" stroke="#F2F6FA" stroke-width="9.5" fill="none" stroke-linecap="round"/>
    <circle cx="60" cy="60" r="15.5" fill="#1E6FE8"/>
    <circle cx="60" cy="56.2" r="4.5" fill="#0A131F"/>
    <rect x="57.8" y="58.8" width="4.4" height="9.2" rx="2.2" fill="#0A131F"/>
  </g>
  <path d="M466.15 210.89 Q455.48 210.89 446.45 207.74 Q437.42 204.59 430.92 198.36 Q424.43 192.12 420.86 182.80 Q417.29 173.48 417.29 161.26 Q417.29 149.89 420.70 140.63 Q424.11 131.37 430.60 124.75 Q436.84 118.39 446.06 114.91 Q455.29 111.44 466.22 111.44 Q472.26 111.44 477.11 112.12 Q481.97 112.79 486.08 113.89 Q490.39 115.11 493.89 116.62 Q497.39 118.13 500.03 119.41 L500.03 142.62 L497.20 142.62 Q495.40 141.08 492.67 138.96 Q489.94 136.84 486.47 134.78 Q482.93 132.72 478.82 131.31 Q474.70 129.89 470.01 129.89 Q464.80 129.89 460.11 131.53 Q455.42 133.17 451.43 136.96 Q447.64 140.63 445.29 146.67 Q442.94 152.71 442.94 161.33 Q442.94 170.33 445.48 176.37 Q448.02 182.41 451.88 185.89 Q455.80 189.42 460.62 190.93 Q465.44 192.44 470.14 192.44 Q474.64 192.44 479.04 191.09 Q483.44 189.74 487.17 187.43 Q490.32 185.56 493.02 183.44 Q495.72 181.32 497.46 179.78 L500.03 179.78 L500.03 202.66 Q496.43 204.27 493.15 205.69 Q489.87 207.10 486.27 208.13 Q481.58 209.48 477.47 210.19 Q473.35 210.89 466.15 210.89 Z M560.19 208.39 Q556.46 209.35 552.28 209.90 Q548.10 210.44 542.06 210.44 Q528.56 210.44 521.97 204.98 Q515.38 199.51 515.38 186.27 L515.38 152.52 L505.87 152.52 L505.87 136.84 L515.38 136.84 L515.38 116.20 L538.52 116.20 L538.52 136.84 L560.19 136.84 L560.19 152.52 L538.52 152.52 L538.52 178.11 Q538.52 181.90 538.59 184.73 Q538.65 187.56 539.62 189.81 Q540.52 192.06 542.80 193.38 Q545.08 194.69 549.45 194.69 Q551.25 194.69 554.18 193.92 Q557.10 193.15 558.26 192.51 L560.19 192.51 Z M623.49 158.89 L621.44 158.89 Q619.96 158.37 616.68 158.11 Q613.40 157.86 611.22 157.86 Q606.27 157.86 602.47 158.50 Q598.68 159.14 594.31 160.69 L594.31 209.03 L571.17 209.03 L571.17 136.84 L594.31 136.84 L594.31 147.44 Q601.96 140.89 607.62 138.73 Q613.27 136.58 618.03 136.58 Q619.25 136.58 620.79 136.64 Q622.34 136.71 623.49 136.84 Z M656.91 209.03 L633.77 209.03 L633.77 109.00 L656.91 109.00 Z M719.64 190.19 L719.64 175.15 Q714.94 175.54 709.48 176.21 Q704.02 176.89 701.19 177.79 Q697.72 178.88 695.88 180.97 Q694.05 183.06 694.05 186.46 Q694.05 188.71 694.44 190.13 Q694.82 191.54 696.37 192.83 Q697.84 194.11 699.90 194.73 Q701.96 195.34 706.33 195.34 Q709.80 195.34 713.37 193.92 Q716.94 192.51 719.64 190.19 Z M719.64 201.38 Q717.77 202.79 715.01 204.79 Q712.24 206.78 709.80 207.94 Q706.39 209.48 702.73 210.22 Q699.07 210.96 694.69 210.96 Q684.41 210.96 677.47 204.59 Q670.52 198.23 670.52 188.33 Q670.52 180.42 674.06 175.41 Q677.59 170.39 684.09 167.50 Q690.52 164.61 700.03 163.39 Q709.54 162.16 719.77 161.59 L719.77 161.20 Q719.77 155.22 714.88 152.94 Q709.99 150.66 700.48 150.66 Q694.76 150.66 688.27 152.68 Q681.77 154.71 678.94 155.80 L676.82 155.80 L676.82 138.38 Q680.49 137.41 688.75 136.10 Q697.01 134.78 705.30 134.78 Q725.04 134.78 733.81 140.85 Q742.59 146.93 742.59 159.91 L742.59 209.03 L719.64 209.03 Z M836.37 171.94 Q836.37 188.97 826.95 199.71 Q817.53 210.44 803.45 210.44 Q797.41 210.44 792.85 209.16 Q788.28 207.87 784.17 205.43 L783.20 209.03 L761.02 209.03 L761.02 109.00 L784.17 109.00 L784.17 144.36 Q789.50 140.11 795.06 137.48 Q800.62 134.84 807.89 134.84 Q821.58 134.84 828.97 144.71 Q836.37 154.58 836.37 171.94 Z M812.52 172.39 Q812.52 162.74 809.24 157.54 Q805.96 152.33 797.54 152.33 Q794.26 152.33 790.79 153.33 Q787.32 154.32 784.17 156.19 L784.17 192.44 Q786.67 193.34 788.92 193.66 Q791.17 193.99 794.32 193.99 Q803.52 193.99 808.02 188.59 Q812.52 183.19 812.52 172.39 Z M873.38 209.03 L850.24 209.03 L850.24 109.00 L873.38 109.00 Z M963.50 177.21 L910.52 177.21 Q911.04 185.69 916.98 190.19 Q922.93 194.69 934.50 194.69 Q941.83 194.69 948.71 192.06 Q955.59 189.42 959.57 186.40 L962.15 186.40 L962.15 204.98 Q954.30 208.13 947.36 209.54 Q940.42 210.96 932.00 210.96 Q910.27 210.96 898.70 201.19 Q887.12 191.41 887.12 173.35 Q887.12 155.48 898.08 145.03 Q909.05 134.59 928.14 134.59 Q945.75 134.59 954.62 143.49 Q963.50 152.39 963.50 169.11 Z M940.48 163.64 Q940.29 156.38 936.88 152.71 Q933.47 149.05 926.27 149.05 Q919.59 149.05 915.28 152.52 Q910.97 155.99 910.46 163.64 Z" fill="#F2F6FA"/>
</svg>
